<svg xmlns="http://www.w3.org/2000/svg" width="32px" height="32px" viewBox="0 0 48 42" aria-hidden="true" focusable="false">
  <g id="375-New" stroke="none" stroke-width="1" fill="none" fill-rule="evenodd" stroke-linecap="round" stroke-linejoin="round">
    <g id="Artboard" transform="translate(-3.000000, -3.000000)" stroke="white" stroke-width="2">
      <g id="Group" transform="translate(3.000000, 0.000000)">
        <g id="fonc/calendrier" transform="translate(1.000000, 4.000000)">
          <line x1="11.251025" y1="6.53612083" x2="11.251025" y2="0.306954167" id="Stroke-187"></line>
          <line x1="30.8173167" y1="3.50107917" x2="16.0014833" y2="3.50107917" id="Stroke-188"></line>
          <line x1="35.5687333" y1="6.53612083" x2="35.5687333" y2="0.306954167" id="Stroke-189"></line>
          <polyline id="Stroke-190" points="20.3626667 22.1885792 26.8314167 22.1885792 26.8314167 27.9385792 19.964 27.9385792 19.964 33.6885792 26.5113333 33.6885792"></polyline>
          <line x1="1.907275" y1="13.5036833" x2="45.1520667" y2="13.5036833" id="Stroke-191"></line>
          <path d="M7.68353333,3.48143333 L2.47403333,3.48143333 C1.60674167,3.48143333 0.901408333,4.17718333 0.901408333,5.044475 L0.901408333,37.8961417 C0.901408333,38.762475 1.60674167,39.4591833 2.47403333,39.4591833 L44.2257417,39.4591833 C45.0930333,39.4591833 45.7983667,38.762475 45.7983667,37.8961417 L45.7983667,5.044475 C45.7983667,4.17718333 45.0930333,3.48143333 44.2257417,3.48143333 L39.974575,3.48143333" id="Stroke-192"></path>
        </g>
      </g>
    </g>
  </g>
</svg>
