<svg xmlns="http://www.w3.org/2000/svg" width="32" height="32" viewBox="0 0 33 29">
  <g id="DESKTOP-Comportements" stroke="none" stroke-width="1" fill="none" fill-rule="evenodd" aria-hidden="true" focusable="false">
    <g id="INTERACT_ACCES" transform="translate(-642.000000, -295.000000)">
      <g id="Sticky_ouvert1/2" transform="translate(282.000000, 192.000000)">
        <path d="M0,6.59134774 C0,2.9510469 2.95641644,0 6.59936851,0 L407,0 L407,394 L6.59936851,394 C2.95463792,394 0,391.041199 0,387.408652 L0,6.59134774 Z" id="Rectangle-2" fill-opacity="0.851505888" ></path>
        <g id="Sticky_fermé" transform="translate(348.000000, 85.000000)">
          <path d="M58.34,213.34 L58.34,0.660000041 L6.59631199,0.660000041 C3.31343495,0.660000041 0.660000041,3.32085027 0.660000041,6.60971433 L0.660000041,207.390286 C0.660000041,210.673503 3.31977778,213.34 6.59631199,213.34 L58.34,213.34 Z" id="Rectangle-5"  stroke-width="1.32000008" ></path>
          <g id="bot-avatar" transform="translate(12.000000, 18.000000)" fill="white">
            <path d="M30.837675,20.0212588 C30.837675,23.8936118 27.790125,27.0409647 24.047925,27.0409647 L12.981375,27.0409647 C9.235875,27.0409647 6.189975,23.8936118 6.189975,20.0212588 L6.189975,8.57990588 C6.189975,4.70925882 9.235875,1.5602 12.981375,1.5602 L24.047925,1.5602 C27.790125,1.5602 30.837675,4.70925882 30.837675,8.57990588 L30.837675,20.0212588 Z M24.047925,0.00102352941 L12.981375,0.00102352941 C8.404275,0.00102352941 4.680225,3.84949412 4.680225,8.57990588 L4.680225,19.1597882 L0.000825,23.0321412 L5.916075,24.4633765 C7.373025,26.9334941 9.981675,28.6018471 12.981375,28.6018471 L24.047925,28.6018471 C28.623375,28.6018471 32.345775,24.7516706 32.345775,20.0212588 L32.345775,8.57990588 C32.345775,3.84949412 28.623375,0.00102352941 24.047925,0.00102352941 L24.047925,0.00102352941 Z" id="Fill-5"></path>
            <path d="M18.8083936,18.4681434 C16.0092314,18.4681434 13.2098361,17.3999068 11.0286436,15.2634335 C10.6125456,14.8558354 10.6022889,14.1848301 11.0053328,13.7642738 C11.4086098,13.3437174 12.0727348,13.3331152 12.4888328,13.7407132 C16.0325422,17.2116578 21.5842449,17.2116578 25.1279544,13.7407132 C25.5442855,13.3333508 26.2081774,13.3439531 26.6114544,13.7642738 C27.0144983,14.1848301 27.0042416,14.8558354 26.5881436,15.2634335 C24.406951,17.3999068 21.6075557,18.4681434 18.8083936,18.4681434" id="Fill-4"></path>
          </g>
        </g>
      </g>
    </g>
  </g>
</svg>
