<svg aria-hidden="true" focusable="false"  width="3rem" height="3rem" viewBox="0 0 64 64" xmlns="http://www.w3.org/2000/svg" fill="none" style="box-sizing: border-box; -webkit-transform: rotate(0deg); -ms-transform: rotate(0deg); transform: rotate(0deg); vertical-align: top"><path stroke="#000"  stroke-width="4" d="M32 2v60" style="box-sizing: border-box; stroke: #e2010b;"/><path d="M21.17 6.628c4.397-2.113 9.713-4.245 10.944-4.245 2.979 0 22.612 10.28 23.407 11.228.795.947.46 12.386 0 16.844-.46 4.457-2.345 9.913-8.195 17.172-3.65 4.529-8.324 8.903-14.023 13.123h0a2 2 0 01-2.378 0c-5.726-4.229-10.47-8.602-14.233-13.12-6.03-7.239-7.42-11.944-8.102-17.175-.681-5.232-.886-15.78 0-16.844.39-.469 1.92-1.565 6.527-3.917" stroke="#000"  stroke-width="4" stroke-linejoin="round" style="box-sizing: border-box; stroke: #010035;"/></svg>